<svg width="33" height="32" viewBox="0 0 33 32" fill="none" xmlns="http://www.w3.org/2000/svg">
<path d="M7.30684 0.137054C8.10987 0.14926 8.90408 0.475144 9.55584 1.1025C10.9741 2.46584 12.3784 3.84261 13.7929 5.20962C14.4106 5.80646 14.7762 6.51681 14.7838 7.36509C14.7939 8.45503 14.1812 9.50347 13.1285 9.96606C12.9243 10.0564 12.7125 10.1308 12.507 10.2199C11.3157 10.7338 10.5997 11.8933 10.7446 13.1273C10.8115 13.6887 11.0258 14.2184 11.264 14.7347C11.6599 15.5927 12.1919 16.3678 12.7945 17.1026C14.098 18.6929 15.6309 20.0184 17.4765 20.9912C18.0577 21.2975 18.6615 21.5563 19.3171 21.6686C20.7542 21.9164 22.1914 21.1316 22.6679 19.9171C22.7082 19.8134 22.7587 19.7121 22.799 19.6071C23.3852 18.0949 25.2712 17.3943 26.8092 18.0997C27.1937 18.2767 27.5176 18.5294 27.8164 18.8186C29.2094 20.171 30.6012 21.5246 31.9955 22.8745C32.4493 23.3139 32.8074 23.807 32.9347 24.4282C33.1629 25.5414 32.8691 26.5251 32.0673 27.3368C31.1105 28.3059 30.1159 29.2396 29.1363 30.1867C28.4467 30.8544 27.5945 31.1754 26.6453 31.3011C25.4086 31.4646 24.2173 31.2352 23.0348 30.9215C21.614 30.5444 20.279 29.9658 18.9855 29.2933C16.9193 28.2204 15.0019 26.9328 13.1928 25.4913C11.8792 24.4453 10.6236 23.3383 9.45625 22.1397C8.75911 21.4233 8.05062 20.7117 7.40138 19.9562C6.05627 18.3902 4.81074 16.7523 3.72532 14.9996C2.81764 13.5349 2.07386 12.0007 1.52799 10.3786C1.15358 9.26791 0.882539 8.12549 0.907752 6.94522C0.927923 6.01883 1.1082 5.1193 1.67675 4.34792C1.94023 3.9903 2.25917 3.66808 2.57938 3.35562C3.40133 2.55006 4.23336 1.75305 5.06917 0.962139C5.65538 0.406794 6.36639 0.137054 7.30684 0.137054Z" fill="#5FA02E"/>
</svg>
