<svg width="85" height="121" viewBox="0 0 120 121" fill="none" xmlns="http://www.w3.org/2000/svg">
<path d="M0.234119 67.0394C1.2544 67.0394 2.11556 67.0394 2.98607 67.0394C14.3121 67.0394 25.6475 67.0769 36.9736 67.03C43.3574 67.002 48.7302 69.2204 53.2138 73.7508C57.5009 78.094 61.8067 82.4185 66.1592 86.6868C69.2762 89.7383 70.7926 93.2391 69.8098 97.6291C69.7442 97.9099 69.8472 98.2282 69.8753 98.64C72.3464 98.9021 74.6023 99.08 76.7365 97.2734C79.582 94.8678 82.6522 92.7149 85.6943 90.5527C94.6709 84.1595 106.765 87.08 111.875 96.8335C111.931 96.9364 111.903 97.0769 111.931 97.3951C108.833 99.7071 105.66 102.094 102.468 104.462C95.7754 109.442 89.1015 114.44 82.3714 119.355C81.5851 119.926 80.4619 120.3 79.4884 120.3C66.7864 120.365 54.0843 120.365 41.3917 120.3C40.4182 120.3 39.3043 119.926 38.49 119.373C29.9346 113.579 21.4447 107.692 12.8799 101.916C11.9252 101.27 10.6241 100.943 9.45407 100.868C6.85188 100.709 4.23097 100.802 1.61007 100.821C0.580426 100.83 -0.0092506 100.587 0.000109773 99.3701C0.0375513 88.9146 0.0281703 78.4497 0.0375307 67.9942C0.0375307 67.7602 0.121786 67.5261 0.22475 67.03L0.234119 67.0394ZM41.7848 82.1845C42.206 82.8023 42.5617 83.495 43.0859 84.0191C47.4665 88.4466 51.8659 92.846 56.284 97.236C58.0344 98.977 60.3183 99.1174 61.7505 97.6572C63.2669 96.1127 63.1265 94.0535 61.3012 92.2095C56.8269 87.7071 52.3152 83.2329 47.841 78.7305C44.8737 75.7446 41.2887 74.3499 37.0952 74.3592C27.8846 74.3873 18.6647 74.3592 9.45407 74.3686C8.79884 74.3686 8.13424 74.4435 7.33861 74.4903C7.33861 80.2282 7.41352 85.7602 7.30119 91.2921C7.26375 93.1174 7.84407 93.7914 9.61318 93.5293C12.4962 93.1081 14.8269 94.1564 17.1764 95.8226C24.9455 101.326 32.8363 106.662 40.7271 111.988C41.5882 112.568 42.7583 112.971 43.7879 112.98C54.8706 113.046 65.9533 113.046 77.036 112.98C78.0095 112.98 79.142 112.624 79.9283 112.053C86.6116 107.167 93.2295 102.197 99.866 97.2547C100.334 96.9084 100.774 96.5152 101.27 96.1127C97.9845 93.7071 93.529 93.885 89.9627 96.4872C86.0968 99.314 82.3058 102.253 78.4026 105.033C77.5601 105.632 76.3901 106.044 75.3511 106.072C70.2497 106.175 65.1389 106.119 60.0375 106.119C56.5087 106.119 53.5134 104.93 51.0142 102.365C46.5773 97.8257 42.0469 93.3701 37.5539 88.8772C37.1234 88.4466 36.7302 87.9786 36.3184 87.5199C38.05 85.835 39.6787 84.2438 41.7942 82.1845H41.7848Z" fill="#5FA02E"/>
<path d="M54.0373 29.3822C53.9531 25.7036 53.6161 22.3619 53.8501 19.0764C54.2432 13.5164 59.1574 9.14509 64.9047 8.85492C70.3525 8.58347 75.8845 12.6178 76.6988 18.0094C77.1856 21.2574 76.7924 24.6365 76.7924 28.0999H87.6692C88.2027 25.3011 86.6114 23.2137 85.4508 21.014C84.2994 18.8237 83.0919 16.6521 81.6972 14.0686C89.5506 11.532 95.8595 7.10453 100.802 0C105.847 6.93604 112.072 11.5694 120 14.0406C118.605 16.6334 117.594 18.9173 116.228 20.9672C114.356 23.7754 113.831 26.9111 113.457 30.1311C113.26 31.7972 112.923 33.4446 112.792 35.1201C112.699 36.3744 112.268 36.6927 111.023 36.4025C108.814 35.897 106.549 35.5788 104.462 35.2137C104.359 37.4789 104.565 39.6131 104.115 41.5975C103.011 46.4181 98.8922 49.5819 93.978 49.6849C91.0576 49.741 88.1185 49.8159 85.2074 49.6568C83.4008 49.5632 82.9796 50.2652 83.0451 51.9033C83.1481 54.7676 83.0358 57.6318 83.0919 60.4961C83.12 61.8627 82.783 62.4899 81.2105 62.4805C70.6239 62.415 60.0467 62.4244 49.4601 62.4805C48.0935 62.4805 47.5787 62.0687 47.588 60.6833C47.6348 53.7098 47.5319 46.7364 47.6442 39.7629C47.7191 34.8393 50.1902 31.3011 54.0467 29.3916L54.0373 29.3822ZM70.446 35.5507C70.446 35.5507 70.446 35.5413 70.446 35.532C66.8423 35.532 63.2292 35.4852 59.6254 35.5413C56.6676 35.5882 55.0763 37.1326 55.0389 40.0062C54.9827 44.4805 55.0482 48.9548 55.0014 53.4384C54.9827 54.7395 55.4601 55.1513 56.7425 55.142C62.4617 55.0858 68.1808 55.0765 73.9 55.142C75.379 55.1607 75.6785 54.5429 75.6504 53.2605C75.5942 50.2746 75.6785 47.2886 75.6224 44.312C75.5943 42.9267 75.978 42.2153 77.5225 42.3557C78.7581 42.468 80.0124 42.3183 81.248 42.3931C82.4929 42.4774 83.1107 42.1217 82.989 40.7457C82.8954 39.5757 82.8954 38.3775 82.989 37.2075C83.0919 35.8596 82.5116 35.5039 81.248 35.5226C77.6442 35.5788 74.0405 35.5413 70.4274 35.5413L70.446 35.5507ZM109.189 17.766C106.455 15.7722 103.554 13.6568 100.877 11.7098C98.1153 13.713 95.2511 15.8003 92.1434 18.0468C93.9687 20.5835 95.0638 23.6818 95.2698 27.0889C95.2885 27.351 96.1496 27.8565 96.4866 27.7629C99.5662 26.9485 102.608 27.1732 105.669 27.8284C105.875 27.8752 106.118 27.7254 105.866 27.791C107.064 24.1591 108.159 20.8549 109.189 17.766ZM60.9172 22.2028C60.9172 22.2028 60.9827 22.2028 61.0202 22.2028C61.0202 22.7644 61.0015 23.3261 61.0202 23.8783C61.1325 26.181 62.6114 27.9314 64.6427 28.1747C67.1325 28.4743 69.1918 27.22 69.5755 24.7395C69.8563 22.9423 69.7627 21.0234 69.4538 19.2262C69.1543 17.4758 67.1887 16.1841 65.4476 16.1279C63.8096 16.0718 61.7222 17.4384 61.2729 19.0577C60.9921 20.0593 61.0295 21.1451 60.9172 22.1935V22.2028ZM90.2994 39.0234C90.2994 42.5616 90.7768 42.9828 94.212 42.3276C94.7456 42.2247 95.2885 41.9906 95.7472 41.6911C97.2355 40.727 97.6379 38.7613 96.7206 37.2543C95.8688 35.8596 93.1449 34.961 91.1512 35.5975C89.485 36.1311 90.627 37.6381 90.3088 38.649C90.2713 38.7613 90.3088 38.8924 90.3088 39.0234H90.2994Z" fill="#5FA02E"/>
</svg>
