<svg width="121" height="121" viewBox="0 0 121 121" fill="none" xmlns="http://www.w3.org/2000/svg">
<path d="M56.9495 0.224269H110.529C111.256 0.224269 111.856 0.793815 111.898 1.52157C111.919 1.84853 111.929 2.15439 111.929 2.47081C111.929 7.21702 111.971 11.9632 111.908 16.6989C111.887 17.8907 112.308 18.4286 113.382 18.8821C119.802 21.5822 122.085 28.6171 118.465 34.5446C117.855 35.5361 117.823 36.1794 118.581 37.2658C120.896 40.6303 120.822 45.0601 118.549 48.4563C117.876 49.4688 117.728 50.0489 118.412 51.0825C121.412 55.6073 120.412 61.5453 116.297 65.0786C115.434 65.8274 115.244 66.4075 115.602 67.4833C116.823 71.0799 116.192 74.3917 114.013 77.4715C113.55 78.1254 113.15 79.3067 113.119 80.1082C113.013 83.0404 112.929 85.983 113.108 88.9046C113.529 95.9922 106.33 101.308 100.163 99.6099C99.8051 99.515 99.4262 99.4833 98.9105 99.3884C98.6369 99.8841 98.3106 100.39 98.058 100.939C95.7216 105.938 89.7437 108.1 84.5973 106.128C83.5869 105.738 83.0291 105.759 82.2187 106.582C77.388 111.507 70.0946 111.032 65.9269 105.558C65.2744 104.704 64.8008 104.303 63.6536 104.736C62.6327 105.115 61.4645 105.189 60.3489 105.2C56.4654 105.253 52.5924 105.147 48.7089 105.274C47.8985 105.295 46.7934 105.822 46.2567 106.413C42.4889 110.568 38.8475 114.84 35.0902 119.017C34.5745 119.597 33.6694 120.145 32.9327 120.145C22.4083 120.219 11.8838 120.187 1.34886 120.177C1.1068 120.177 0.864733 120.103 0.422707 120.04C0.380609 119.386 0.317462 118.721 0.317462 118.067C0.317462 107.077 0.327986 96.0977 0.285889 85.1076C0.285889 83.7997 0.717391 82.9243 1.66459 82.0489C6.91629 77.2605 12.0522 72.3456 17.346 67.5993C18.8615 66.2388 19.4825 64.6989 19.8087 62.7899C20.556 58.3706 21.3558 53.9514 22.3136 49.5743C23.7449 42.9929 27.3969 37.8248 32.9433 34.0911C34.4272 33.0997 35.1639 31.95 35.5217 30.2625C36.6479 25.0944 38.3423 20.19 42.1942 16.2981C45.52 12.9441 49.4351 10.6026 53.8869 9.19988C55.3288 8.74635 55.7076 8.06079 55.655 6.67911C55.5813 4.99157 55.6129 3.30403 55.6234 1.52157C55.6234 0.783268 56.2233 0.192627 56.9495 0.192627V0.224269ZM63.8536 66.7028C64.2851 66.5657 64.464 66.4708 64.6324 66.4603C66.0005 66.4392 67.3687 66.4181 68.7474 66.4181C70.3542 66.4181 71.161 67.2337 71.1681 68.865C71.1681 78.2941 71.1681 87.7233 71.1681 97.1524C71.1681 97.6481 71.1681 98.1544 71.1681 98.6501C71.1996 101.013 72.5257 102.637 74.4412 102.669C76.3671 102.69 77.7458 101.086 77.7564 98.7239C77.7774 89.6745 77.7564 80.6145 77.7564 71.5651C77.7564 66.3864 77.7564 66.4497 82.9344 66.3864C84.1131 66.3759 85.0709 67.3251 85.0603 68.5064C84.9867 77.2394 85.0182 85.983 85.0393 94.716C85.0393 95.6336 85.134 96.604 85.4497 97.4583C85.9339 98.8083 87.0179 99.5255 88.4808 99.515C89.9437 99.515 91.0172 98.8083 91.5013 97.4477C91.7644 96.7094 91.8591 95.8657 91.8591 95.0746C91.8802 87.1432 91.9012 79.2117 91.8591 71.2908C91.8381 68.4009 92.6906 65.8696 94.6481 63.7813C95.3532 63.0324 95.469 62.484 95.0165 61.5137C93.3641 57.9909 93.522 54.4682 95.6585 51.188C96.3004 50.1966 96.2689 49.5532 95.6479 48.5618C93.3536 44.9125 93.3115 41.105 95.4901 37.4135C96.1952 36.2216 96.2373 35.4833 95.5111 34.2915C91.9959 28.5011 94.6902 21.0127 101.036 18.7661C102.131 18.3759 103.299 18.1755 104.478 17.8802V8.76745C104.478 8.11352 103.952 7.58617 103.299 7.58617H64.1798C63.4957 7.58617 62.9379 8.14516 62.9379 8.83073C62.9379 9.13659 62.9379 9.44246 62.9379 9.73778C62.8327 14.7266 63.6852 13.3133 59.0123 15.2328C55.5287 16.6567 52.003 18.186 48.8457 20.2216C45.6147 22.31 44.0676 25.7589 43.3098 29.7141C44.1307 29.7141 44.678 29.7141 45.2253 29.7141C54.5079 29.7141 63.7904 29.7141 73.073 29.6719C74.4412 29.6719 75.0095 30.0199 74.9042 31.5282C74.7779 33.3845 74.8411 35.2407 74.8832 37.097C75.1147 47.4121 66.39 53.8564 59.2018 53.1814C57.3179 53.0021 56.939 53.7826 56.9495 55.5229C57.0127 68.074 56.9811 80.6251 57.0021 93.1761C57.0021 94.0305 57.0969 94.9375 57.3705 95.7391C57.8652 97.1841 58.9807 97.9435 60.5278 97.9013C62.0539 97.8485 63.1379 97.068 63.5589 95.5809C63.7588 94.8742 63.822 94.1148 63.822 93.3765C63.843 87.8815 63.8325 82.3864 63.8325 76.8914C63.8325 73.5268 63.8325 70.1623 63.8325 66.7134L63.8536 66.7028ZM67.3372 37.0865C66.7583 37.0549 66.1584 36.981 65.548 36.981C59.507 36.981 53.4659 36.9388 47.4249 36.981C38.5738 37.0549 31.333 42.803 29.3649 51.4306C28.4388 55.4912 27.6179 59.6046 27.1127 63.7391C26.6391 67.6415 25.2288 70.6791 22.1031 73.2632C17.4934 77.0707 13.2836 81.3528 8.86331 85.3713C8.05293 86.1096 7.58986 87.1537 7.58986 88.2506C7.64248 95.8129 7.61091 103.375 7.62143 110.938C7.62143 111.539 7.6951 112.14 7.72667 112.699C8.08451 112.783 8.26342 112.857 8.44234 112.857C15.5463 112.868 22.6398 112.899 29.7438 112.836C30.4174 112.836 31.2488 112.288 31.7224 111.75C35.4165 107.615 39.0685 103.428 42.6784 99.2197C43.4677 98.2915 44.2781 97.7852 45.541 97.8802C47.0144 97.9856 48.4984 97.9013 50.0876 97.9013C49.9508 96.604 49.7403 95.5071 49.7403 94.3996C49.7192 78.8637 49.7403 63.3172 49.6982 47.7813C49.6982 46.2625 50.2981 45.8512 51.6978 45.8828C54.4973 45.9461 57.3074 45.9672 60.1069 45.8512C64.4956 45.6719 68.0528 41.3686 67.3266 37.076L67.3372 37.0865ZM99.2789 81.6587C99.2789 84.2638 99.1631 87.101 99.321 89.9276C99.4052 91.4464 101.236 92.7015 102.678 92.6066C104.288 92.5011 105.709 91.13 105.772 89.4319C105.857 87.2592 105.857 85.0865 105.762 82.9138C105.741 82.4814 105.173 81.7536 104.815 81.722C103.047 81.5954 101.268 81.6692 99.2789 81.6692V81.6587ZM107.099 32.0872C107.972 32.0872 108.846 32.1504 109.709 32.0766C111.529 31.9184 112.75 30.6738 112.834 28.9652C112.919 27.2038 111.698 25.6534 109.866 25.5163C108.014 25.3792 106.13 25.3686 104.278 25.5163C102.415 25.6745 101.268 27.1933 101.363 28.9968C101.457 30.716 102.647 31.9184 104.499 32.0661C105.362 32.1399 106.236 32.0766 107.109 32.0661L107.099 32.0872ZM107.088 46.1781C107.962 46.1781 108.835 46.2414 109.698 46.1676C111.571 45.9883 112.834 44.6171 112.834 42.8558C112.834 41.0733 111.592 39.7022 109.688 39.5862C107.951 39.4807 106.204 39.4807 104.467 39.5862C102.552 39.6916 101.342 41.0417 101.352 42.8558C101.352 44.6488 102.584 45.9883 104.478 46.1676C105.341 46.252 106.214 46.1781 107.088 46.1781ZM107.12 60.1742C107.993 60.1742 108.867 60.2375 109.73 60.1636C111.55 60.0054 112.761 58.7398 112.834 57.0417C112.908 55.3436 111.771 53.7932 110.035 53.6455C108.067 53.4767 106.046 53.4662 104.078 53.656C102.32 53.8248 101.268 55.3752 101.363 57.1155C101.457 58.7714 102.594 59.9843 104.32 60.1531C105.246 60.248 106.183 60.1742 107.109 60.1742H107.12ZM103.899 74.339C103.899 74.339 103.899 74.3073 103.899 74.2968C104.394 74.2968 104.899 74.3179 105.394 74.2968C107.52 74.1702 108.856 72.8413 108.846 70.9111C108.825 69.0443 107.551 67.7681 105.499 67.6626C104.383 67.5994 103.257 67.5993 102.152 67.7154C100.458 67.8947 99.3104 69.192 99.2473 70.8162C99.1841 72.4405 100.237 73.8432 101.878 74.1913C102.541 74.3284 103.236 74.2968 103.92 74.3495L103.899 74.339Z" fill="#5FA02E"/>
</svg>
