<svg width="100" height="124" viewBox="0 0 124 124" fill="none" xmlns="http://www.w3.org/2000/svg">
<path d="M70.9826 71.3375C72.7026 73.2775 74.1026 74.7775 76.1426 75.6775C80.1526 77.4475 84.0526 79.4775 88.0626 81.2775C89.5826 81.9575 89.6926 82.6275 88.8926 84.0275C86.6726 87.8875 84.6926 91.8875 82.4526 95.7375C80.8726 98.4475 81.1426 101.477 80.6026 104.367C80.0426 107.337 79.7326 110.367 79.4226 113.377C79.2826 114.747 78.6926 114.897 77.4826 114.657C73.5026 113.867 69.4526 113.367 65.5126 112.407C62.6226 111.707 59.9026 112.127 57.1226 112.657C53.5126 113.337 49.8926 113.987 46.2926 114.727C45.1126 114.967 44.6726 114.607 44.5226 113.437C43.9626 108.897 43.2926 104.367 42.7426 99.8175C42.5626 98.3775 42.1926 97.0675 41.4826 95.7975C39.2226 91.7375 37.0626 87.6175 34.8026 83.5575C34.2126 82.5075 34.3826 82.0275 35.4726 81.5175C39.7426 79.5375 43.9626 77.4275 48.2426 75.4675C50.0826 74.6275 51.3426 73.2475 52.5826 71.6375C52.3226 71.5175 52.1626 71.3875 52.0026 71.3775C49.4826 71.2375 48.2226 69.9308 48.2226 67.4575C48.2226 64.6175 48.1726 61.7675 48.2226 58.9275C48.3026 54.9575 46.6826 51.8275 43.7026 49.2975C38.9226 45.2275 35.8926 40.1175 34.4326 33.9975C30.6426 18.0575 42.5326 1.75746 58.7726 0.147464C74.3726 -1.40254 86.7426 9.49747 89.2026 21.9775C91.2326 32.2775 88.5926 41.2875 80.8526 48.3775C77.0026 51.8975 75.0226 55.7475 75.4026 60.9375C75.6026 63.5675 75.3226 66.2375 75.4726 68.8775C75.5926 70.8675 74.8826 71.6275 72.9426 71.3475C72.4426 71.2775 71.9226 71.3375 70.9626 71.3375H70.9826ZM65.6826 39.1075C65.6826 41.0975 65.6726 42.5275 65.6826 43.9475C65.6826 44.5475 65.7826 45.2375 66.5626 45.1975C69.5926 45.0275 72.6126 45.9575 75.4226 43.3275C83.3826 35.8975 84.6026 23.7875 77.8726 15.2875C71.1726 6.83746 58.8726 5.08746 50.0326 11.3075C39.2726 18.8875 38.4226 34.5475 48.3226 43.2275C49.5026 44.2675 50.5326 45.3575 52.4526 45.3075C58.0126 45.1675 57.7626 45.2575 58.1126 39.7075C58.3526 35.9175 57.2326 33.4875 53.9126 31.5675C50.9826 29.8775 50.8926 30.3575 53.1526 27.1775C55.6926 23.6075 55.6826 23.6375 59.2326 26.1175C62.3826 28.3175 61.3926 28.2475 64.4626 26.1175C68.0226 23.6475 68.0126 23.6175 70.5426 27.1675C72.7526 30.2775 72.7626 29.7875 69.8126 31.5775C66.6326 33.5075 64.6226 35.7375 65.6926 39.1175L65.6826 39.1075ZM71.6126 105.757C72.7426 106.077 72.8726 105.357 72.9626 104.487C73.2326 101.987 73.4926 99.4875 73.8726 97.0075C74.4426 93.3275 76.8526 90.4775 78.4826 87.2875C79.1826 85.9075 79.0726 85.2775 77.6226 84.7575C71.7726 82.6575 66.9426 79.1475 63.1726 74.1975C62.3326 73.0975 61.6826 73.0775 60.8026 74.1775C56.9926 78.9575 52.3626 82.6475 46.5226 84.6575C44.9326 85.2075 44.6426 85.9275 45.5426 87.4775C47.9226 91.5875 50.5526 95.6175 50.5526 100.667C50.5526 101.947 50.9526 103.217 51.0126 104.497C51.0726 105.767 51.6026 106.037 52.7326 105.727C58.8226 104.067 64.9126 103.917 71.0026 105.687C71.1826 105.737 71.3826 105.737 71.5926 105.757H71.6126ZM61.9226 52.9675C60.1826 52.9675 58.4326 52.9675 56.6926 52.9675C55.7526 52.9675 55.1326 53.3275 55.3926 54.3575C56.0426 56.9075 55.7826 59.4975 55.7926 62.0675C55.7926 63.3175 56.2426 63.7975 57.5026 63.7675C60.3426 63.7075 63.1826 63.6875 66.0226 63.7675C67.5126 63.8175 67.8926 63.1975 67.8926 61.8175C67.8926 59.3775 67.6326 56.9175 68.2726 54.4975C68.5626 53.4075 68.0326 52.9475 66.9526 52.9575C65.2726 52.9775 63.5926 52.9575 61.9126 52.9575L61.9226 52.9675Z" fill="#5FA02E"/>
<path d="M96.7827 123.017C95.8227 123.167 95.5427 122.687 95.4527 121.817C95.2127 119.637 94.7627 117.477 94.6327 115.297C94.3827 111.217 91.7627 108.197 90.0827 104.757C88.9727 102.487 88.8327 102.337 91.2127 101.457C96.8827 99.3574 101.433 95.8174 105.163 91.1474C106.123 89.9574 106.883 89.8574 107.863 91.1274C111.653 96.0574 116.503 99.5474 122.333 101.657C123.763 102.177 124.163 102.917 123.203 104.207C122.973 104.517 122.853 104.897 122.633 105.217C119.423 109.857 118.033 115.057 117.743 120.637C117.623 123.067 117.283 123.227 114.873 122.767C113.233 122.457 111.563 122.227 109.953 121.777C106.553 120.837 103.313 121.827 100.023 122.407C98.9427 122.597 97.8727 122.807 96.7927 123.007L96.7827 123.017ZM113.303 106.417C113.433 105.867 113.093 105.647 112.723 105.507C110.493 104.687 108.663 103.327 107.173 101.487C106.543 100.707 106.053 101.187 105.623 101.707C104.253 103.397 102.573 104.657 100.533 105.387C99.4427 105.777 99.5827 106.407 100.063 107.177C101.183 108.947 101.933 110.827 101.903 112.977C101.883 114.027 102.483 114.327 103.433 114.057C105.453 113.487 107.473 113.397 109.493 114.017C110.613 114.357 110.993 113.927 111.053 112.827C111.153 110.877 111.673 109.027 112.823 107.397C113.043 107.087 113.163 106.707 113.303 106.407V106.417Z" fill="#5FA02E"/>
<path d="M17.2227 121.217C14.3927 121.757 11.5326 122.227 8.70265 122.857C6.94265 123.247 5.98265 122.817 5.95265 120.907C5.84265 114.877 3.99267 109.407 0.602675 104.447C-0.357325 103.047 -0.247311 102.107 1.49269 101.627C1.55269 101.607 1.60267 101.557 1.66267 101.537C7.39267 99.4775 12.0727 95.9675 15.8027 91.1875C16.7327 89.9975 17.5627 89.7875 18.4827 91.1275C18.5227 91.1775 18.5727 91.2175 18.6127 91.2675C22.4027 96.0975 27.1827 99.5875 32.9627 101.647C34.6027 102.237 34.7027 103.067 33.8027 104.367C30.2427 109.477 28.5727 115.217 28.2827 121.377C28.2027 122.987 27.4827 123.167 26.1927 122.917C23.2227 122.337 20.2427 121.797 17.2127 121.227L17.2227 121.217ZM19.8427 113.927C21.3127 114.317 21.7927 113.927 21.7827 113.017C21.7427 110.797 22.5427 108.877 23.7027 107.047C24.1626 106.317 24.1327 105.767 23.2027 105.407C21.1826 104.637 19.4327 103.467 18.1127 101.737C17.4927 100.927 16.9127 100.907 16.2727 101.737C14.9827 103.397 13.3527 104.637 11.3627 105.337C10.2327 105.737 10.1827 106.347 10.7727 107.217C11.9727 108.957 12.5327 110.917 12.6527 113.007C12.7027 113.897 13.0027 114.357 13.9527 114.107C16.1026 113.547 18.2427 113.337 19.8427 113.937V113.927Z" fill="#5FA02E"/>
<path d="M21.6625 14.9975C21.4225 14.8875 21.0625 14.7375 20.7225 14.5575C18.0925 13.2075 15.4825 11.8075 12.8225 10.5075C11.7225 9.96755 11.3826 9.42755 12.0526 8.28755C12.8326 6.95755 13.5025 5.55755 14.1625 4.16755C14.5825 3.27755 15.1126 3.09755 16.0026 3.56755C18.8426 5.07755 21.7125 6.52755 24.5725 7.99755C25.1925 8.31755 25.6926 8.63755 25.2426 9.47755C24.3626 11.1275 23.5426 12.7975 22.6826 14.4475C22.5026 14.7875 22.2625 15.1175 21.6625 14.9875V14.9975Z" fill="#5FA02E"/>
<path d="M25.4426 47.4574C25.3726 48.1674 24.8426 48.3274 24.3926 48.5474C21.6526 49.9674 18.9026 51.3674 16.1726 52.8174C15.2826 53.2874 14.6526 53.3174 14.1626 52.2774C13.4826 50.8274 12.7626 49.3874 11.9626 47.9874C11.3926 46.9874 11.7426 46.4974 12.6626 46.0374C15.4226 44.6574 18.1626 43.2374 20.8926 41.7974C21.7726 41.3374 22.3926 41.2674 22.8826 42.3374C23.5526 43.7974 24.3426 45.1974 25.0726 46.6274C25.2126 46.9074 25.3226 47.2074 25.4326 47.4474L25.4426 47.4574Z" fill="#5FA02E"/>
<path d="M101.903 15.0074C101.273 15.0274 101.093 14.5974 100.883 14.1974C100.113 12.7174 99.3825 11.2074 98.5725 9.74736C98.0725 8.85736 98.2926 8.37736 99.1726 7.93736C101.993 6.52736 104.793 5.08736 107.573 3.60736C108.513 3.10736 109.083 3.19736 109.563 4.20736C110.243 5.65736 110.983 7.08736 111.763 8.49736C112.253 9.38736 112.023 9.89736 111.153 10.3374C108.343 11.7574 105.553 13.2174 102.753 14.6674C102.473 14.8174 102.163 14.9074 101.913 15.0174L101.903 15.0074Z" fill="#5FA02E"/>
<path d="M111.983 47.6075C111.133 49.2075 110.183 51.0975 109.123 52.9375C108.803 53.4975 108.193 53.1575 107.733 52.9175C104.873 51.4475 102.023 49.9475 99.1527 48.5075C98.2327 48.0475 98.2227 47.5375 98.6127 46.6675C100.313 42.8742 102.969 41.9075 106.583 43.7675C108.123 44.5575 109.673 45.3575 111.213 46.1675C111.663 46.3975 112.193 46.5975 111.983 47.6075Z" fill="#5FA02E"/>
<path d="M15.3526 32.0875C9.73259 32.0875 9.78259 32.0875 9.79259 26.4775C9.79259 24.8975 10.2826 24.2775 11.8926 24.3475C14.2026 24.4475 16.5326 24.4475 18.8426 24.3475C20.4926 24.2675 20.8926 24.9575 20.8926 26.4975C20.8726 32.0875 20.9226 32.0875 15.3526 32.0875Z" fill="#5FA02E"/>
<path d="M108.303 32.0874C102.763 32.0874 102.813 32.0874 102.803 26.4574C102.803 24.8774 103.263 24.2674 104.883 24.3374C107.193 24.4374 109.523 24.4174 111.833 24.3374C113.263 24.2974 113.883 24.7074 113.903 26.2974C113.963 32.0774 114.013 32.0674 108.303 32.0674V32.0874Z" fill="#5FA02E"/>
</svg>
