<svg width="100" height="130" viewBox="0 0 84 126" fill="none" xmlns="http://www.w3.org/2000/svg">
<path d="M17.7201 126C17.7201 124.866 17.7201 124.03 17.7201 123.195C17.7201 108.159 17.7009 93.1229 17.7489 78.087C17.7489 76.5594 17.2301 75.6467 16.0868 74.6668C3.22229 63.7237 -2.1195 49.8216 1.56981 33.335C5.32636 16.5602 16.1733 5.76133 32.9289 1.81263C56.8036 -3.8078 79.9194 12.4386 83.1572 36.8802C85.1844 52.1466 79.7561 64.7133 68.0733 74.5995C66.8532 75.6275 66.3343 76.5883 66.3439 78.1831C66.4016 93.1517 66.3824 108.12 66.3824 123.098V125.942C65.4889 125.664 64.8356 125.5 64.2111 125.26C57.5434 122.685 50.8662 120.13 44.2274 117.488C42.7478 116.902 41.4604 116.863 39.9616 117.459C33.3228 120.111 26.6455 122.666 19.9779 125.241C19.3342 125.491 18.6616 125.673 17.7297 125.981L17.7201 126ZM8.16058 42.1932C8.14136 60.9472 23.2637 76.1463 41.9504 76.1655C60.7043 76.1847 75.9131 61.0624 75.9323 42.3853C75.9515 23.641 60.8388 8.44184 42.1425 8.42263C23.3886 8.40341 8.17018 23.5161 8.16058 42.1932ZM25.5599 80.7483V114.874C29.278 113.443 32.7559 112.021 36.2819 110.782C37.7519 110.263 38.2515 109.494 38.2323 107.938C38.1554 101.116 38.1938 94.295 38.1938 87.464C38.1938 83.938 38.1746 84.0149 34.8312 83.2175C31.7568 82.4969 28.7208 81.5938 25.5599 80.7483ZM58.5811 80.5466C57.8125 80.806 57.2264 81.0462 56.6115 81.1999C53.7965 81.9493 51.0103 82.8908 48.1472 83.3232C46.3794 83.5826 45.851 84.1398 45.8702 85.85C45.9471 92.4119 45.8991 98.9739 45.8991 105.536C45.8991 108.495 47.2537 110.503 49.9631 111.56C52.7781 112.645 55.6027 113.712 58.5811 114.846V80.5466Z" fill="#5FA02E"/>
<path d="M41.9695 15.3305C56.7171 15.2824 69.1108 27.4936 68.9859 42.2605C68.8514 57.7671 56.5826 69.1616 42.0271 69.2193C27.318 69.2769 15.0683 57.181 15.1164 42.4238C15.1644 27.0325 27.2699 15.5995 41.9695 15.3305ZM61.2326 42.2028C61.3767 32.749 53.9789 23.151 41.9599 22.9973C31.3435 22.8628 22.8024 31.769 22.8505 42.3757C22.9081 53.0786 31.4492 61.562 42.1232 61.514C52.8068 61.466 61.2903 52.896 61.223 42.2028H61.2326Z" fill="#5FA02E"/>
<path d="M38.2035 37.6297C38.2035 36.0348 38.2227 34.7666 38.2035 33.508C38.1843 32.4512 38.6166 31.99 39.7215 32.0188C41.6622 32.0765 43.6029 32.0381 45.755 32.0381C45.8511 33.8827 45.928 35.5448 46.0336 37.5336C47.4075 37.0148 48.5988 36.6017 49.7421 36.1021C50.7125 35.6889 51.289 35.8234 51.6733 36.8995C52.3554 38.773 53.1528 40.5984 53.9599 42.5776C52.1248 43.3846 50.4915 44.1052 48.6085 44.9314C49.8863 46.4878 51.0296 47.8713 52.3362 49.4566C50.626 50.9553 49.0216 52.4445 47.3018 53.78C47.0424 53.9817 46.0913 53.6935 45.7454 53.3476C44.506 52.1179 43.3916 50.7728 42.0657 49.2932C40.8071 50.6863 39.6158 51.9449 38.5109 53.2708C37.7711 54.1547 37.1466 54.2796 36.2724 53.4533C34.86 52.1275 33.3709 50.8785 31.7568 49.4566C33.0154 47.9578 34.1587 46.5743 35.523 44.9506C33.6687 44.1148 31.997 43.3654 30.1523 42.5391C31.0074 40.4447 31.7472 38.4463 32.6599 36.5248C32.8232 36.1885 33.7359 35.9387 34.1875 36.0636C35.4173 36.3999 36.5798 36.9667 38.2227 37.6104L38.2035 37.6297Z" fill="#5FA02E"/>
</svg>
