<svg width="110" height="120" viewBox="0 0 124 120" fill="none" xmlns="http://www.w3.org/2000/svg">
<path d="M22.3034 47.0476C28.2757 45.523 32.4076 47.8957 36.1696 51.8832C41.2037 57.224 46.4724 62.3483 51.723 67.4816C56.4142 72.0646 58.6245 77.5768 58.5974 84.0994C58.5433 94.9885 58.5433 105.869 58.6245 116.758C58.6335 118.616 58.0742 119.185 56.2157 119.166C46.3009 119.085 36.3772 119.094 26.4534 119.166C24.613 119.185 23.9724 118.634 24.0266 116.758C24.1439 112.635 23.9905 108.512 24.0987 104.389C24.1438 102.693 23.5665 101.529 22.3756 100.356C15.3117 93.3917 8.29287 86.3819 1.35525 79.2999C0.606454 78.5331 0.0651545 77.2069 0.0561329 76.1333C-0.0160401 56.0332 0.00200537 35.942 0.00200537 15.8419C0.00200537 13.388 0.011005 13.4962 2.57314 13.3609C8.64469 13.0452 13.8953 14.7142 17.9821 19.3783C20.7607 22.5449 22.2313 26.2618 22.2764 30.4749C22.3305 35.1752 22.2944 39.8754 22.2944 44.5847C22.2944 45.2794 22.2944 45.9741 22.2944 47.0386L22.3034 47.0476ZM7.64329 21.5706C7.6072 22.0487 7.56213 22.3645 7.56213 22.6802C7.56213 39.6228 7.53506 56.5745 7.61625 73.5171C7.61625 74.3922 8.22072 75.4657 8.87027 76.1153C15.9793 83.3146 23.1695 90.4236 30.2605 97.6409C30.9732 98.3716 31.4694 99.5986 31.5235 100.627C31.695 103.577 31.6408 106.554 31.5596 109.513C31.5235 110.921 31.9566 111.462 33.4181 111.444C38.6326 111.381 43.8561 111.381 49.0706 111.444C50.5772 111.462 51.0643 110.975 51.0553 109.441C50.9922 100.807 51.0553 92.1738 51.0012 83.5401C50.9831 80.175 50.1892 76.9182 47.7895 74.4553C41.4563 67.9417 35.0059 61.5454 28.5554 55.1491C27.121 53.7236 24.8295 53.8229 23.4762 55.131C22.1049 56.4572 22.0148 58.6314 23.3049 60.2102C23.7108 60.7064 24.189 61.1484 24.64 61.6085C29.6921 66.6697 34.7623 71.7127 39.7964 76.7919C40.3196 77.3242 41.312 77.8204 40.3647 78.8308C38.9213 80.3645 37.5048 81.9252 35.9982 83.5581C35.1231 82.7372 34.5909 82.2861 34.1037 81.7899C29.0426 76.7378 24.0446 71.6135 18.9023 66.6426C15.9162 63.7557 14.6351 60.3545 14.6712 56.2677C14.7343 47.7603 14.7163 39.253 14.6712 30.7546C14.6441 26.2979 11.7933 22.581 7.62528 21.5616L7.64329 21.5706Z" fill="#5FA02E"/>
<path d="M101.667 46.9848C101.667 41.3373 101.549 35.9965 101.694 30.6738C101.892 23.2851 105.528 18.0435 112.15 14.8408C115.587 13.1718 119.277 13.3071 122.94 13.4695C123.291 13.4876 123.725 14.101 123.914 14.5341C124.076 14.913 123.959 15.4182 123.959 15.8693C123.959 35.9063 123.95 55.9343 123.986 75.9713C123.986 77.4328 123.58 78.4883 122.525 79.5258C115.47 86.4995 108.496 93.5544 101.441 100.528C100.349 101.602 99.8262 102.675 99.8623 104.227C99.9615 108.539 99.8443 112.861 99.9164 117.173C99.9435 118.707 99.3571 119.176 97.8775 119.167C87.7012 119.122 77.5247 119.122 67.3484 119.167C65.8327 119.167 65.3456 118.653 65.3546 117.146C65.3997 105.616 65.3005 94.0867 65.4178 82.5571C65.4719 77.2163 67.4115 72.4619 71.1825 68.6187C77.3714 62.3216 83.6505 56.1237 89.8934 49.8898C93.1051 46.6781 97.0385 46.0737 101.658 47.0029L101.667 46.9848ZM87.8725 83.6397C86.5464 82.1331 85.4638 80.6716 84.1466 79.4627C82.9558 78.3711 83.1994 77.6854 84.2188 76.675C89.5416 71.4244 94.8192 66.1377 100.088 60.833C101.928 58.9746 102.064 56.7102 100.539 55.1675C99.0413 53.6608 96.7047 53.8142 94.8914 55.6185C88.9101 61.5728 82.9558 67.5632 76.9835 73.5174C74.3311 76.1608 73.032 79.4266 72.9959 83.0803C72.8967 91.9666 72.9779 100.862 72.9418 109.757C72.9418 111.047 73.438 111.444 74.6469 111.435C79.9967 111.399 85.3465 111.39 90.6873 111.435C92.0766 111.444 92.4465 110.867 92.4195 109.577C92.3563 106.681 92.4646 103.776 92.3744 100.88C92.3293 99.4816 92.7533 98.4802 93.7637 97.4879C100.909 90.4239 108.027 83.3239 115.073 76.1517C115.785 75.421 116.372 74.194 116.372 73.1926C116.453 56.5658 116.426 39.948 116.426 23.3211C116.426 22.7257 116.345 22.1303 116.3 21.4717C111.879 22.9332 109.317 26.4065 109.299 30.8722C109.263 39.4428 109.263 48.0133 109.299 56.5839C109.317 60.4541 108.072 63.7109 105.257 66.4535C100.043 71.5327 94.9455 76.7291 89.7941 81.8714C89.3431 82.3225 88.865 82.7375 87.9087 83.6307L87.8725 83.6397Z" fill="#5FA02E"/>
<path d="M62.0615 52.6502C59.5535 52.6502 57.0365 52.6051 54.5285 52.6682C53.2204 52.6953 52.5798 52.2442 52.6881 50.8909C52.7242 50.4399 52.679 49.9888 52.6881 49.5377C52.7422 48.1935 52.3272 46.4523 53.0129 45.6223C53.6264 44.8735 55.4938 45.2524 56.7388 44.9006C57.2982 44.7382 58.0379 44.0435 58.0921 43.5293C58.2635 41.8062 58.2454 40.047 58.1101 38.3238C58.065 37.8006 57.4876 37.0518 56.9824 36.8714C53.6173 35.6444 50.8657 33.6506 48.6735 30.8088C48.2856 30.3036 47.4195 29.9969 46.7338 29.9157C45.137 29.7353 43.495 29.9337 41.9253 29.645C35.9349 28.5444 31.7128 23.9073 31.2257 17.8357C31.0001 15.0841 31.1625 12.2965 31.0903 9.53585C31.0542 8.21869 31.5955 7.70446 32.9217 7.72251C36.5304 7.77664 40.139 7.68642 43.7386 7.75859C45.1189 7.78566 45.7685 7.41577 45.6422 5.91818C45.5249 4.51081 45.6602 3.08539 45.6061 1.669C45.561 0.550319 45.9219 0 47.1217 0C57.0365 0.0180432 66.9603 0.0180432 76.875 0C77.9396 0 78.3727 0.442059 78.3366 1.51563C78.2824 2.99518 78.3997 4.48374 78.3095 5.95427C78.2193 7.30751 78.7245 7.76761 80.0687 7.74055C83.6142 7.6774 87.1507 7.77663 90.6962 7.69544C92.2298 7.65935 92.9787 8.11946 92.8704 9.76139C92.6358 13.2798 92.9426 16.9065 92.1847 20.3077C90.9127 26.0635 85.7704 29.7443 79.8792 29.8525C79.1034 29.8706 78.2914 29.7082 77.5697 29.8976C76.6675 30.1502 75.5759 30.466 75.0256 31.1336C72.9236 33.6957 70.4156 35.6354 67.2761 36.6639C66.1303 37.0337 65.7333 37.6021 65.7784 38.7298C65.8326 40.1462 65.8596 41.5716 65.7784 42.979C65.6792 44.5307 66.3829 44.9818 67.8354 44.9637C71.6606 44.9096 71.2726 44.7562 71.2636 48.401C71.2456 53.2636 71.8139 52.569 67.0685 52.6231C65.3905 52.6411 63.7215 52.6231 62.0435 52.6231L62.0615 52.6502ZM70.7674 15.6074C70.7674 13.5414 70.7133 11.4845 70.7854 9.41857C70.8305 8.19163 70.4336 7.6774 69.1525 7.69544C64.3891 7.74055 59.6167 7.74055 54.8442 7.69544C53.5722 7.68642 53.1752 8.16457 53.1933 9.40955C53.2564 13.343 53.1572 17.2674 53.2294 21.2008C53.3196 26.1717 57.1177 29.9969 61.8811 30.042C66.7618 30.0871 70.614 26.271 70.7494 21.2188C70.8035 19.3514 70.7494 17.4839 70.7584 15.6164L70.7674 15.6074ZM45.6332 18.9905C45.552 15.0751 46.2828 15.4811 42.0155 15.445C41.375 15.445 40.6532 15.2736 40.1119 15.5082C39.5706 15.7517 38.8489 16.4013 38.8309 16.8885C38.7407 19.1619 39.9135 20.7858 41.9343 21.7601C44.6498 23.0683 45.6242 22.4638 45.6332 19.5589C45.6332 19.3694 45.6332 19.1709 45.6332 18.9815V18.9905ZM78.12 18.8371C78.3726 19.9648 78.3095 21.8053 78.932 22.0849C80.61 22.8247 82.288 21.9406 83.6052 20.6866C84.0202 20.2986 84.372 19.8115 84.6427 19.3153C86.0501 16.6539 85.3283 15.454 82.3692 15.454C82.1798 15.454 81.9813 15.454 81.7918 15.454C77.7501 15.4811 78.4268 15.1834 78.12 18.8462V18.8371Z" fill="#5FA02E"/>
</svg>
