<svg width="36" height="36" viewBox="0 0 36 36" fill="none" xmlns="http://www.w3.org/2000/svg">
<path d="M0.257522 16.6444C0.367193 15.8787 0.439674 15.1064 0.593214 14.3493C1.33612 10.6887 3.06511 7.55894 5.74491 4.9802C8.20156 2.61516 11.1179 1.09245 14.4595 0.426447C19.1277 -0.503086 23.4812 0.319119 27.5142 2.85665C27.5924 2.90552 27.6706 2.95343 27.7508 2.99943C27.7698 3.00997 27.7946 3.01093 27.8461 3.02435C27.9072 2.94481 27.9787 2.85856 28.0426 2.76657C28.3268 2.35834 28.59 1.93287 28.899 1.54572C29.0287 1.38281 29.2738 1.18541 29.433 1.21032C29.5885 1.23524 29.7678 1.50547 29.824 1.70096C30.2618 3.21121 30.6766 4.72913 31.0886 6.24705C31.2641 6.89197 30.9341 7.34715 30.278 7.40753C28.7979 7.54168 27.3187 7.68351 25.8377 7.80905C25.5506 7.833 25.1987 7.95087 25.0071 7.63943C24.8116 7.32224 25.0853 7.075 25.2464 6.83064C25.5402 6.38792 25.8453 5.95381 26.1801 5.46605C25.8549 5.26769 25.5516 5.0674 25.235 4.89108C22.7993 3.53415 20.1901 2.89019 17.4044 3.01572C13.0862 3.21025 9.4995 4.96104 6.68046 8.23644C4.69684 10.5401 3.52383 13.2358 3.24536 16.2793C2.81239 21.019 4.22096 25.1338 7.57977 28.5146C9.71502 30.6631 12.3138 31.9731 15.2778 32.5595C15.994 32.7014 16.445 33.1776 16.5299 33.8206C16.61 34.4234 16.2925 35.0645 15.7164 35.2935C15.4208 35.4114 15.0536 35.4689 14.7456 35.4114C11.5079 34.8096 8.65837 33.4 6.19409 31.2026C3.51239 28.8117 1.7214 25.8669 0.821138 22.3883C0.570324 21.4186 0.474005 20.4095 0.306159 19.4177C0.290901 19.3276 0.272781 19.2375 0.255615 19.1484C0.257523 18.3137 0.257522 17.4791 0.257522 16.6444Z" fill="#5FA02E"/>
<path d="M15.9148 13.1669C15.9148 11.4171 15.9139 9.66819 15.9158 7.91837C15.9158 7.73342 15.9234 7.54751 15.9453 7.36352C16.0197 6.72627 16.5347 6.26725 17.1374 6.29217C17.7792 6.319 18.2685 6.82976 18.2723 7.4996C18.279 8.78562 18.2742 10.0716 18.2742 11.3576C18.2742 13.3154 18.2809 15.2732 18.2666 17.2319C18.2647 17.5069 18.3591 17.6373 18.5946 17.759C21.5252 19.2721 24.4501 20.7958 27.3759 22.3185C28.0197 22.6539 28.281 23.1723 28.1141 23.753C27.9205 24.4229 27.2434 24.7784 26.5882 24.5493C26.448 24.5005 26.3126 24.4315 26.1801 24.3625C22.8747 22.6462 19.5702 20.9251 16.261 19.2175C15.9949 19.0804 15.9082 18.9156 15.9101 18.6243C15.9215 16.8045 15.9148 14.9857 15.9148 13.1669Z" fill="#5FA02E"/>
<path d="M35.7445 17.7791C35.714 18.0762 35.7207 18.3828 35.6444 18.6684C35.4699 19.322 34.8023 19.7781 34.1881 19.7062C33.4233 19.6171 32.8902 19.1006 32.8444 18.3665C32.8177 17.9411 32.8044 17.5108 32.8406 17.0872C32.9074 16.3292 33.5501 15.7792 34.2949 15.7974C35.0331 15.8146 35.6472 16.4001 35.7064 17.1524C35.7226 17.3594 35.7092 17.5683 35.7092 17.7762C35.7216 17.7772 35.7331 17.7782 35.7445 17.7791Z" fill="#5FA02E"/>
<path d="M31.6657 11.7926C31.6685 11.1841 32.0528 10.6408 32.6203 10.4414C33.1944 10.2392 33.9105 10.3724 34.1928 10.8899C34.5066 11.463 34.7421 12.1088 34.8623 12.7519C34.9739 13.345 34.5161 13.898 33.9458 14.1097C33.3689 14.3234 32.7166 14.1452 32.3246 13.6661C32.0729 13.3565 31.6637 12.1961 31.6657 11.7926Z" fill="#5FA02E"/>
<path d="M30.4001 30.0163C29.8203 29.9377 29.3959 29.6934 29.1279 29.2133C28.8599 28.7332 28.8513 28.2253 29.1517 27.7643C29.4026 27.3791 29.6944 27.015 30.01 26.6815C30.485 26.1813 31.2813 26.1372 31.8449 26.5387C32.398 26.9326 32.6536 27.6953 32.316 28.2876C32.0299 28.7907 31.6389 29.2478 31.2288 29.6589C31.0314 29.8572 30.6814 29.9023 30.4001 30.0163Z" fill="#5FA02E"/>
<path d="M26.3214 33.4997C25.5213 33.5083 24.9768 33.1336 24.7708 32.5654C24.5571 31.9779 24.7174 31.3215 25.2199 30.9449C25.5862 30.6699 25.9819 30.4246 26.3901 30.2157C26.9346 29.9368 27.6137 30.0968 28.0314 30.5491C28.4624 31.0168 28.5826 31.725 28.2231 32.2453C27.7243 32.9659 26.9757 33.331 26.3214 33.4997Z" fill="#5FA02E"/>
<path d="M21.7084 32.3344C22.583 32.3305 23.1857 32.8059 23.3163 33.4594C23.4613 34.1839 23.0941 34.8997 22.4056 35.1297C21.9726 35.2744 21.5168 35.3779 21.0638 35.4277C20.2951 35.513 19.6295 34.9735 19.4998 34.2212C19.3777 33.5102 19.8173 32.8001 20.5383 32.5969C20.9789 32.4724 21.4328 32.3948 21.7084 32.3344Z" fill="#5FA02E"/>
<path d="M34.9663 22.8944C34.8748 23.4119 34.7098 24.0415 34.3483 24.5829C33.9668 25.154 33.2096 25.315 32.5926 25.0189C31.9594 24.7151 31.6256 24.0558 31.803 23.386C31.9155 22.9634 32.0576 22.5446 32.2312 22.1441C32.5049 21.5154 33.1934 21.2002 33.8629 21.3564C34.519 21.5106 34.9654 22.0808 34.9663 22.8944Z" fill="#5FA02E"/>
</svg>
