<svg width="80" height="126" viewBox="0 0 113 126" fill="none" xmlns="http://www.w3.org/2000/svg">
<path d="M112.56 33.7179C112.56 41.0679 112.93 48.4379 112.49 55.7679C111.31 75.4679 102.97 91.7879 88.2802 104.908C79.0101 113.188 68.4801 119.588 57.5601 125.388C56.9901 125.688 55.9801 125.708 55.4201 125.408C42.7601 118.648 30.5801 111.198 20.4301 100.848C9.49015 89.6979 3.00014 76.3579 0.880143 60.9179C0.360143 57.1579 0.11014 53.3379 0.0801401 49.5379C-0.0198599 37.7879 0.0801383 26.0279 0.0001383 14.2779C-0.0098617 12.4779 0.520135 11.8779 2.34013 11.8979C9.89013 11.9779 17.4401 11.8779 24.9901 11.9379C36.3901 12.0379 46.3501 8.27787 54.8801 0.787869C56.2001 -0.362131 56.9201 -0.182131 58.1301 0.867869C66.6401 8.26787 76.5301 12.0279 87.8601 11.9379C95.1501 11.8779 102.44 11.9279 109.73 11.9379C111.837 11.9379 112.89 13.0245 112.89 15.1979C112.89 21.3679 112.89 27.5479 112.89 33.7179C112.78 33.7179 112.67 33.7179 112.57 33.7179H112.56ZM7.73013 36.5779C7.85013 36.5779 7.97013 36.5779 8.09013 36.5779C8.09013 42.8779 7.79013 49.1879 8.15013 55.4579C8.92013 68.7279 13.4201 80.6579 21.9501 90.9579C31.1601 102.088 43.0301 109.778 55.5101 116.638C56.0901 116.958 57.2401 116.818 57.8301 116.438C64.9401 111.868 72.2801 107.588 79.0101 102.498C95.7801 89.7979 104.52 72.7079 105.12 51.6579C105.41 41.6179 105.16 31.5679 105.21 21.5279C105.21 20.0579 104.58 19.7779 103.31 19.7879C98.2601 19.8279 93.2001 19.8179 88.1501 19.7879C77.2401 19.7379 67.1501 16.8779 58.1401 10.6379C56.8001 9.70787 55.9801 9.83787 54.7201 10.6879C46.8501 16.0379 38.1801 19.1979 28.6201 19.5379C22.3301 19.7579 16.0201 19.7579 9.72014 19.7579C8.20014 19.7579 7.66014 20.2179 7.69014 21.7879C7.78014 26.7079 7.72014 31.6379 7.72014 36.5579L7.73013 36.5779Z" fill="#5FA02E"/>
<path d="M36.6301 94.0379C36.6301 90.0579 36.7201 86.2579 36.5701 82.4679C36.5301 81.4179 36.0401 80.1679 35.3401 79.3979C32.5601 76.3379 29.5601 73.4879 26.7501 70.4479C26.1201 69.7579 25.6401 68.6479 25.6201 67.7179C25.5101 62.5979 25.6001 57.4779 25.5601 52.3579C25.5301 49.1279 26.8901 46.5779 29.0601 44.2879C29.7301 43.5779 30.1601 42.4479 30.2901 41.4579C30.5701 39.3879 30.3901 37.2479 30.7401 35.1979C31.9201 28.2779 38.5301 24.1879 45.2901 25.9679C46.3001 26.2379 47.5001 26.2179 48.5101 25.9479C51.2301 25.2279 53.8301 26.2179 56.4401 26.2279C59.0501 26.2279 61.6501 25.2179 64.3701 25.9479C65.3801 26.2179 66.5801 26.2379 67.5901 25.9779C74.9701 24.0679 82.3301 29.2879 82.4901 36.9179C82.6801 46.4379 82.5901 55.9579 82.4901 65.4779C82.4701 66.9179 81.8701 68.4379 81.2401 69.7779C78.6601 75.3179 77.76 81.1179 78.22 87.1879C78.39 89.3979 78.2501 91.6279 78.2501 94.0279H36.6201L36.6301 94.0379ZM56.9501 49.1079C50.0201 49.1079 43.2101 49.0579 36.3901 49.1379C34.5201 49.1579 33.3601 50.6079 33.3001 52.5579C33.2501 54.0679 33.2701 55.5779 33.2801 57.0879C33.3101 60.0979 32.5901 63.4279 33.6301 66.0379C34.6401 68.5779 37.2801 70.6479 39.5601 72.4779C43.4401 75.5779 45.1901 79.3179 44.3401 84.2379C44.0401 85.9779 44.7801 86.4879 46.5101 86.4579C53.7301 86.3779 60.9501 86.3579 68.1701 86.4579C70.0801 86.4879 70.7101 85.9179 70.5701 84.0279C70.2501 79.6179 70.4401 75.2279 72.5401 71.1879C75.9501 64.6479 74.6201 57.6379 74.8501 50.6979C73.0801 50.8079 71.4401 51.1079 69.8601 50.9479C68.2201 50.7779 66.6201 50.1579 64.8701 49.6979C64.6101 55.0179 62.2501 59.1179 57.7301 61.9579C60.2401 65.6079 62.1401 69.2579 61.5501 73.8979C59.4701 73.8979 57.5801 73.8379 55.6901 73.9179C54.4001 73.9679 54.0801 73.4279 53.9401 72.1979C53.5001 68.3479 51.3401 65.7079 47.7701 64.2379C46.6101 63.7579 44.8701 63.7079 44.3801 62.8779C43.7701 61.8479 44.1801 60.2079 44.1601 58.8279C44.1601 58.3679 44.2001 57.9079 44.1601 57.4479C44.0601 56.2279 44.6501 55.8379 45.8001 55.8679C47.5001 55.9179 49.2201 55.9379 50.9201 55.8679C54.7401 55.6979 57.0801 53.1579 56.9601 49.0679L56.9501 49.1079ZM52.7101 41.3779C56.9701 41.3779 61.2401 41.3179 65.5001 41.4179C66.4501 41.4379 67.5001 41.8479 68.3001 42.3879C70.1201 43.6079 72.0101 43.6479 73.5001 42.2479C75.2401 40.6179 75.4101 36.7579 73.8301 34.7979C72.2501 32.8379 70.0901 32.7279 67.6401 34.7379C66.4301 35.7379 65.6301 35.6579 64.4501 34.7079C61.9501 32.6979 60.6101 32.6879 58.1501 34.6779C56.8901 35.7079 56.0201 35.6779 54.7701 34.6679C52.4601 32.7879 51.0401 32.6779 48.9601 34.3879C47.4201 35.6479 46.2801 35.8279 44.8101 34.3779C43.6701 33.2479 42.1701 32.9379 40.6201 33.6279C38.9401 34.3779 38.2501 35.8079 38.0901 37.5379C38.0301 38.1879 38.1401 38.8579 38.0601 39.4979C37.8801 40.9579 38.4401 41.4379 39.9301 41.4079C44.1901 41.3179 48.4501 41.3779 52.7201 41.3779H52.7101Z" fill="#5FA02E"/>
</svg>
